<svg version="1.1" id="Layer_1" xmlns="http://www.w3.org/2000/svg" xmlns:xlink="http://www.w3.org/1999/xlink" x="0px" y="0px"
	 width="100%" viewBox="0 0 720 720" enable-background="new 0 0 720 720" xml:space="preserve">
<path fill="#000000" opacity="1.000000" stroke="none" 
	d="
M1.000001,323.000000 
	C1.000000,215.735138 1.000000,108.470268 1.000000,1.000000 
	C120.355270,1.000000 239.710648,1.000000 359.533020,1.468657 
	C360.000000,82.518967 360.000000,163.100616 360.000000,243.721054 
	C370.762878,245.078903 381.167877,246.391602 391.684875,247.718430 
	C402.121674,208.373962 412.565430,169.003281 423.178162,128.995560 
	C415.096741,127.238136 407.145599,125.509048 398.756622,123.684746 
	C399.198029,121.085350 399.649780,118.731735 399.991272,116.362228 
	C401.704498,104.474205 403.284119,92.565910 405.110321,80.695442 
	C407.301575,66.452049 409.730682,52.245415 411.987305,38.011848 
	C413.511292,28.399431 414.545685,18.690342 416.543640,9.180938 
	C417.416595,5.026016 415.965240,4.266214 412.696167,3.997842 
	C408.782806,3.676574 404.859406,3.423562 400.969696,2.915939 
	C400.242188,2.820996 399.653015,1.665877 399.000000,1.000005 
	C506.264984,1.000000 613.529968,1.000000 721.000000,1.000000 
	C721.000000,120.688599 721.000000,240.377319 720.531372,360.533020 
	C639.473938,361.000000 558.885254,361.000000 478.175079,361.000000 
	C476.849426,371.413544 475.566559,381.490997 474.261658,391.741516 
	C513.600769,402.201874 552.963196,412.668396 592.977112,423.308197 
	C594.765991,415.085693 596.496033,407.133606 598.316833,398.764435 
	C604.573242,399.868927 610.572205,401.073303 616.617065,401.967102 
	C632.992493,404.388397 649.412720,406.515625 665.767334,409.066223 
	C681.434631,411.509583 697.039124,414.353943 712.677490,416.984802 
	C715.987305,417.541595 717.907227,416.378845 718.041931,412.678802 
	C718.184692,408.759827 718.576172,404.841309 719.083008,400.951782 
	C719.177002,400.230164 720.333740,399.647034 721.000000,399.000000 
	C721.000000,506.264862 721.000000,613.529724 721.000000,721.000000 
	C601.644714,721.000000 482.289337,721.000000 362.466980,720.531372 
	C362.000000,639.481079 362.000000,558.899475 362.000000,478.278839 
	C351.237244,476.921021 340.832214,475.608337 330.315033,474.281494 
	C319.878235,513.625916 309.434448,552.996582 298.821808,593.003967 
	C306.902710,594.761414 314.854858,596.490784 323.243286,598.315125 
	C322.800903,600.920471 322.349762,603.271179 322.008728,605.637756 
	C320.295593,617.525757 318.715942,629.434082 316.889740,641.304504 
	C314.698486,655.547913 312.269348,669.754517 310.012695,683.988098 
	C308.488678,693.600464 307.454285,703.309631 305.456299,712.819031 
	C304.583344,716.973877 306.034760,717.733826 309.303802,718.002197 
	C313.217163,718.323486 317.140594,718.576477 321.030304,719.084106 
	C321.757812,719.179016 322.346985,720.334106 323.000000,721.000000 
	C215.735016,721.000000 108.470024,721.000000 1.000000,721.000000 
	C1.000000,601.311401 1.000000,481.622681 1.468657,361.466980 
	C82.527390,361.000000 163.117462,361.000000 243.805695,361.000000 
	C245.175568,350.472198 246.500320,340.291260 247.799393,330.307495 
	C208.135376,319.749878 168.904877,309.307617 129.023254,298.692078 
	C127.234276,306.914490 125.504356,314.865479 123.740463,322.972565 
	C113.883499,321.595154 104.268417,320.298889 94.668915,318.895996 
	C86.008400,317.630371 77.352882,316.321198 68.717194,314.897552 
	C59.301342,313.345306 49.920921,311.578583 40.506592,310.016693 
	C30.123241,308.294067 19.717531,306.706482 9.324507,305.041718 
	C5.939465,304.499481 4.123466,305.678314 3.964164,309.320862 
	C3.792767,313.240051 3.423779,317.158539 2.916954,321.048096 
	C2.822917,321.769745 1.666239,322.352905 1.000001,323.000000 
M136.035828,445.312042 
	C139.563583,453.477234 143.091339,461.642456 146.717361,470.035095 
	C111.120819,488.316803 75.521935,506.599701 39.104198,525.303162 
	C49.479393,542.084534 59.495953,558.285767 69.560417,574.564514 
	C76.511497,569.265259 82.366791,564.625427 88.401161,560.231445 
	C114.666306,541.106323 141.001083,522.076721 167.204758,502.868073 
	C168.070908,502.233185 168.518631,499.608643 167.939255,498.651001 
	C164.195770,492.463379 160.112259,486.481506 156.181595,480.495117 
	C191.019623,460.219513 225.786102,439.985565 259.921631,420.118835 
	C255.556320,409.710693 251.676987,400.461243 247.752777,391.104767 
	C209.755325,401.351349 171.331100,411.713043 132.055374,422.304321 
	C130.175079,414.127899 128.324966,406.082764 126.515259,398.213318 
	C123.083427,398.821381 119.769585,399.488556 116.430428,399.985657 
	C104.872864,401.706360 93.290695,403.267120 81.747498,405.077606 
	C67.670906,407.285339 53.629986,409.719513 39.562817,411.988708 
	C28.842438,413.717987 18.093596,415.275879 7.395802,417.131348 
	C6.461373,417.293396 4.967215,419.300385 5.156741,420.122070 
	C8.984131,436.715515 13.000710,453.265564 17.033072,469.811249 
	C17.718014,472.621674 18.990789,473.591980 22.295292,472.435516 
	C34.545010,468.148438 46.947407,464.297028 59.297058,460.296173 
	C82.320450,452.837524 105.411758,445.578339 128.313324,437.762970 
	C132.482956,436.340057 133.673431,437.861603 134.945328,440.806946 
	C135.448822,441.972900 135.657211,443.266296 136.035828,445.312042 
M682.438965,309.999847 
	C683.851990,309.667419 685.249756,309.233002 686.680542,309.019104 
	C695.825500,307.651917 704.992920,306.422821 714.107666,304.880676 
	C715.200928,304.695709 717.004639,302.671967 716.823181,301.879761 
	C713.020935,285.281097 708.999756,268.732269 704.966553,252.187073 
	C704.281982,249.378967 703.008606,248.408035 699.703247,249.565155 
	C687.454163,253.853195 675.051636,257.703735 662.702148,261.704407 
	C639.679138,269.162811 616.588135,276.420929 593.683472,284.226288 
	C589.172119,285.763702 588.237732,283.915283 586.989929,280.713135 
	C583.281372,271.196045 579.483887,261.713593 575.567505,251.829865 
	C610.746948,233.754379 646.466309,215.401489 682.898376,196.682434 
	C672.520691,179.904587 662.540283,163.769104 652.492859,147.525208 
	C639.539795,157.100662 627.509399,166.097946 615.369446,174.945007 
	C595.128967,189.695465 574.795044,204.317886 554.621948,219.159409 
	C553.803162,219.761780 553.555298,222.452698 554.177734,223.486008 
	C557.878479,229.629333 561.914246,235.570862 565.800110,241.522919 
	C530.925476,261.818115 496.257141,281.993317 462.142761,301.846100 
	C466.415436,312.106323 470.315552,321.471893 474.245514,330.909058 
	C512.346802,320.628876 550.769165,310.262054 589.960510,299.687775 
	C591.841125,307.900970 593.683411,315.946655 595.563354,324.157013 
	C596.352722,323.766876 596.890869,323.327179 597.483582,323.233490 
	C610.775391,321.132904 624.075684,319.086151 637.369202,316.996460 
	C652.096252,314.681366 666.818115,312.333649 682.438965,309.999847 
M235.508438,114.005753 
	C222.770325,89.326256 210.032211,64.646767 196.853607,39.113838 
	C182.550919,47.904083 168.384628,56.443062 154.404861,65.277214 
	C147.996017,69.327110 148.162338,69.590141 152.339493,75.795883 
	C153.060669,76.867287 153.744598,77.965897 154.506805,79.007233 
	C176.002823,108.375435 197.525558,137.724106 218.969238,167.130463 
	C220.496033,169.224182 221.505051,169.449020 223.704849,167.906052 
	C229.346313,163.949036 235.232986,160.341553 241.647156,156.189362 
	C262.016388,191.215454 282.106628,225.761826 301.923157,259.837524 
	C312.001465,255.632675 321.387390,251.716705 330.963501,247.721390 
	C320.716217,209.638168 310.343323,171.087982 299.818634,131.973755 
	C308.030762,130.114700 315.986969,128.313568 323.924347,126.516693 
	C317.467590,85.951744 311.029083,45.501518 304.442383,4.120245 
	C285.700226,8.630589 267.201691,13.082303 248.345749,17.620033 
	C261.124786,56.746536 273.460236,94.514961 285.800232,132.297226 
	C275.395782,136.797440 264.880188,141.443802 254.236008,145.774170 
	C253.327896,146.143631 250.896439,144.751984 250.302231,143.597198 
	C245.372925,134.017700 240.709656,124.301331 235.508438,114.005753 
M414.997803,562.612915 
	C417.300385,571.464661 419.602966,580.316406 422.118439,589.986572 
	C414.115479,591.828552 406.066254,593.681152 398.082306,595.518738 
	C404.521454,635.982666 410.937897,676.303955 417.553497,717.876648 
	C436.202545,713.355774 454.757172,708.857788 473.623199,704.284302 
	C460.832764,665.122803 448.496033,627.350403 436.175018,589.626282 
	C446.549225,585.175293 456.945923,580.598267 467.484894,576.376343 
	C468.519165,575.962036 471.174072,577.334473 471.815399,578.545532 
	C478.667847,591.485474 485.306763,604.539429 491.924072,617.602722 
	C502.755005,638.984070 513.526489,660.395569 524.428162,682.002930 
	C541.461914,674.320862 556.790466,664.046936 571.883362,653.407166 
	C572.529419,652.951721 572.655212,650.561951 572.075989,649.745300 
	C564.216125,638.663086 556.227783,627.671143 548.193848,616.713501 
	C533.165161,596.215454 518.023926,575.799377 503.113281,555.216003 
	C501.420532,552.879272 500.622589,552.481323 498.206299,554.175903 
	C492.579285,558.122192 486.692780,561.698486 480.322510,565.804260 
	C459.929260,530.700806 439.857666,496.150970 420.110626,462.159851 
	C409.880432,466.420898 400.515564,470.321533 391.114685,474.237152 
	C395.751709,491.800964 400.382355,509.677002 405.208527,527.500061 
	C408.312469,538.962830 411.703979,550.347778 414.997803,562.612915 
M213.027374,276.531494 
	C228.478195,285.373779 243.929016,294.216095 259.096405,302.896179 
	C265.614258,294.492798 271.986694,286.276947 278.432739,277.966125 
	C222.491608,222.017044 166.040131,165.588089 109.669373,109.078590 
	C107.142899,106.545906 105.566261,106.592575 103.272377,109.164330 
	C96.254265,117.032547 88.921356,124.624252 82.024651,132.594986 
	C77.391014,137.950241 73.289650,143.766037 68.686440,149.716675 
	C101.397179,173.472855 133.815079,197.016357 166.213013,220.545364 
	C161.577881,227.659332 157.195694,234.385101 152.561981,241.496887 
	C172.711105,253.095612 192.601593,264.545441 213.027374,276.531494 
M487.000031,487.499969 
	C529.823669,530.324402 572.647278,573.148865 616.132629,616.635071 
	C628.761047,601.935242 641.134521,587.532166 653.858704,572.720825 
	C620.715454,548.639099 588.296936,525.083923 555.797852,501.470154 
	C560.379272,494.408325 564.815369,487.570557 569.401428,480.501648 
	C533.563965,459.825531 498.107941,439.369507 462.929138,419.073395 
	C456.400787,427.487549 450.024475,435.705719 443.543182,444.059204 
	C457.520050,458.030823 472.010040,472.515411 487.000031,487.499969 
M446.031738,211.663651 
	C436.997833,227.555939 427.963928,243.448227 419.077942,259.080322 
	C426.025940,264.496643 433.174774,269.364838 439.414398,275.204559 
	C443.014008,278.573395 444.630585,278.006592 447.692993,274.916382 
	C501.833069,220.284653 556.076355,165.755157 610.297607,111.203888 
	C611.119690,110.376747 611.974548,109.579948 612.762329,108.721504 
	C613.615723,107.791595 614.408386,106.805931 615.889465,105.067665 
	C601.224060,92.558456 586.840454,80.289658 572.224182,67.822388 
	C571.135681,69.758507 570.811584,70.500458 570.345825,71.139099 
	C560.908936,84.078346 551.427002,96.984787 542.012939,109.940567 
	C528.990845,127.861702 515.992249,145.800049 503.058716,163.785080 
	C501.620575,165.784897 500.750000,165.828873 498.681610,164.380920 
	C492.899353,160.333160 486.834869,156.688553 480.390472,152.570908 
	C474.855774,162.191315 469.453735,171.648331 463.985870,181.067139 
	C458.175842,191.075226 452.303345,201.047028 446.031738,211.663651 
M254.034119,547.619568 
	C270.446228,519.303162 286.858337,490.986755 303.070312,463.015594 
	C295.940033,457.477295 288.925598,452.704559 282.777710,446.998230 
	C279.138092,443.619934 277.381958,443.941956 274.136993,447.229034 
	C232.968048,488.932495 191.673096,530.511597 150.391388,572.103577 
	C140.646606,581.921570 130.848312,591.686584 121.042297,601.443481 
	C116.237083,606.224731 111.357857,610.931519 105.657921,616.507629 
	C120.674995,629.341003 135.053848,641.628967 149.494202,653.969482 
	C173.730484,620.553955 197.221024,588.166626 220.657089,555.854370 
	C227.760376,560.479248 234.487747,564.859314 241.548843,569.456665 
	C245.808044,562.225769 249.887039,555.300842 254.034119,547.619568 
M657.385986,512.035156 
	C665.644958,516.212769 673.903870,520.390442 682.965576,524.974121 
	C690.495300,506.729309 697.674927,489.332886 704.932861,471.746582 
	C664.793213,458.778778 625.709473,446.152069 587.376404,433.767883 
	C582.725769,444.563629 578.501038,454.572510 574.083984,464.495758 
	C572.832153,467.308044 572.509644,469.145294 575.970642,470.579803 
	C579.508240,472.046112 582.733459,474.249054 586.160706,476.001831 
	C609.637085,488.008301 633.130493,499.981293 657.385986,512.035156 
M80.673538,270.961975 
	C81.006508,270.977264 81.363106,270.919434 81.669060,271.018341 
	C98.298210,276.393707 114.969070,281.647430 131.508087,287.287720 
	C134.661926,288.363281 135.515350,287.881073 136.638504,284.933289 
	C140.230072,275.506927 144.053360,266.161041 148.095474,256.918915 
	C149.294449,254.177505 149.108383,252.915222 146.315948,251.640640 
	C142.960098,250.108902 139.914871,247.911514 136.612976,246.244339 
	C105.868935,230.721222 75.100151,215.247116 44.331348,199.773117 
	C42.812874,199.009445 41.227772,198.378281 38.909290,197.344620 
	C31.499245,215.300934 24.318136,232.702484 17.056150,250.300034 
	C38.795612,257.274994 59.395222,263.884216 80.673538,270.961975 
M245.964981,587.385498 
	C229.765427,618.938843 213.565872,650.492249 196.921234,682.912537 
	C215.178543,690.459290 232.584259,697.653992 250.420013,705.026489 
	C263.339905,664.925903 275.937073,625.827026 288.316559,587.403748 
	C277.405365,582.716187 267.230225,578.477173 257.186859,573.946106 
	C254.322998,572.654175 252.827545,572.814941 251.520462,575.864014 
	C249.938477,579.554382 247.884674,583.042542 245.964981,587.385498 
M444.962677,100.320518 
	C441.107483,111.975822 437.252319,123.631126 433.628723,134.586304 
	C444.483490,139.247147 454.541260,143.357712 464.394165,147.911621 
	C467.749878,149.462585 469.207947,148.901947 470.806396,145.706909 
	C477.061798,133.203400 483.590424,120.836929 489.951447,108.385796 
	C498.211700,92.217186 506.431915,76.028008 514.622192,59.823853 
	C517.945312,53.249226 521.144287,46.611839 524.871155,39.045975 
	C506.977509,31.624794 489.592743,24.414677 471.627533,16.963829 
	C462.557495,45.077564 453.778748,72.288414 444.962677,100.320518 
z"/>
<path fill="#FFFFFF" opacity="1.000000" stroke="none" 
	d="
M398.531342,1.000005 
	C399.653015,1.665877 400.242188,2.820996 400.969696,2.915939 
	C404.859406,3.423562 408.782806,3.676574 412.696167,3.997842 
	C415.965240,4.266214 417.416595,5.026016 416.543640,9.180938 
	C414.545685,18.690342 413.511292,28.399431 411.987305,38.011848 
	C409.730682,52.245415 407.301575,66.452049 405.110321,80.695442 
	C403.284119,92.565910 401.704498,104.474205 399.991272,116.362228 
	C399.649780,118.731735 399.198029,121.085350 398.756622,123.684746 
	C407.145599,125.509048 415.096741,127.238136 423.178162,128.995560 
	C412.565430,169.003281 402.121674,208.373962 391.684875,247.718430 
	C381.167877,246.391602 370.762878,245.078903 360.000000,243.721054 
	C360.000000,163.100616 360.000000,82.518967 360.000000,1.468657 
	C372.687561,1.000000 385.375122,1.000000 398.531342,1.000005 
z"/>
<path fill="#FFFFFF" opacity="1.000000" stroke="none" 
	d="
M323.468658,721.000000 
	C322.346985,720.334106 321.757812,719.179016 321.030304,719.084106 
	C317.140594,718.576477 313.217163,718.323486 309.303802,718.002197 
	C306.034760,717.733826 304.583344,716.973877 305.456299,712.819031 
	C307.454285,703.309631 308.488678,693.600464 310.012695,683.988098 
	C312.269348,669.754517 314.698486,655.547913 316.889740,641.304504 
	C318.715942,629.434082 320.295593,617.525757 322.008728,605.637756 
	C322.349762,603.271179 322.800903,600.920471 323.243286,598.315125 
	C314.854858,596.490784 306.902710,594.761414 298.821808,593.003967 
	C309.434448,552.996582 319.878235,513.625916 330.315033,474.281494 
	C340.832214,475.608337 351.237244,476.921021 362.000000,478.278839 
	C362.000000,558.899475 362.000000,639.481079 362.000000,720.531372 
	C349.312439,721.000000 336.624878,721.000000 323.468658,721.000000 
z"/>
<path fill="#FFFFFF" opacity="1.000000" stroke="none" 
	d="
M721.000000,398.531311 
	C720.333740,399.647034 719.177002,400.230164 719.083008,400.951782 
	C718.576172,404.841309 718.184692,408.759827 718.041931,412.678802 
	C717.907227,416.378845 715.987305,417.541595 712.677490,416.984802 
	C697.039124,414.353943 681.434631,411.509583 665.767334,409.066223 
	C649.412720,406.515625 632.992493,404.388397 616.617065,401.967102 
	C610.572205,401.073303 604.573242,399.868927 598.316833,398.764435 
	C596.496033,407.133606 594.765991,415.085693 592.977112,423.308197 
	C552.963196,412.668396 513.600769,402.201874 474.261658,391.741516 
	C475.566559,381.490997 476.849426,371.413544 478.175079,361.000000 
	C558.885254,361.000000 639.473938,361.000000 720.531372,361.000000 
	C721.000000,373.354218 721.000000,385.708466 721.000000,398.531311 
z"/>
<path fill="#FFFFFF" opacity="1.000000" stroke="none" 
	d="
M1.000001,323.468658 
	C1.666239,322.352905 2.822917,321.769745 2.916954,321.048096 
	C3.423779,317.158539 3.792767,313.240051 3.964164,309.320862 
	C4.123466,305.678314 5.939465,304.499481 9.324507,305.041718 
	C19.717531,306.706482 30.123241,308.294067 40.506592,310.016693 
	C49.920921,311.578583 59.301342,313.345306 68.717194,314.897552 
	C77.352882,316.321198 86.008400,317.630371 94.668915,318.895996 
	C104.268417,320.298889 113.883499,321.595154 123.740463,322.972565 
	C125.504356,314.865479 127.234276,306.914490 129.023254,298.692078 
	C168.904877,309.307617 208.135376,319.749878 247.799393,330.307495 
	C246.500320,340.291260 245.175568,350.472198 243.805695,361.000000 
	C163.117462,361.000000 82.527390,361.000000 1.468657,361.000000 
	C1.000000,348.645782 1.000000,336.291534 1.000001,323.468658 
z"/>
<path fill="#FFFFFF" opacity="1.000000" stroke="none" 
	d="
M136.017899,444.906860 
	C135.657211,443.266296 135.448822,441.972900 134.945328,440.806946 
	C133.673431,437.861603 132.482956,436.340057 128.313324,437.762970 
	C105.411758,445.578339 82.320450,452.837524 59.297058,460.296173 
	C46.947407,464.297028 34.545010,468.148438 22.295292,472.435516 
	C18.990789,473.591980 17.718014,472.621674 17.033072,469.811249 
	C13.000710,453.265564 8.984131,436.715515 5.156741,420.122070 
	C4.967215,419.300385 6.461373,417.293396 7.395802,417.131348 
	C18.093596,415.275879 28.842438,413.717987 39.562817,411.988708 
	C53.629986,409.719513 67.670906,407.285339 81.747498,405.077606 
	C93.290695,403.267120 104.872864,401.706360 116.430428,399.985657 
	C119.769585,399.488556 123.083427,398.821381 126.515259,398.213318 
	C128.324966,406.082764 130.175079,414.127899 132.055374,422.304321 
	C171.331100,411.713043 209.755325,401.351349 247.752777,391.104767 
	C251.676987,400.461243 255.556320,409.710693 259.921631,420.118835 
	C225.786102,439.985565 191.019623,460.219513 156.181595,480.495117 
	C160.112259,486.481506 164.195770,492.463379 167.939255,498.651001 
	C168.518631,499.608643 168.070908,502.233185 167.204758,502.868073 
	C141.001083,522.076721 114.666306,541.106323 88.401161,560.231445 
	C82.366791,564.625427 76.511497,569.265259 69.560417,574.564514 
	C59.495953,558.285767 49.479393,542.084534 39.104198,525.303162 
	C75.521935,506.599701 111.120819,488.316803 146.717361,470.035095 
	C143.091339,461.642456 139.563583,453.477234 136.017899,444.906860 
z"/>
<path fill="#FFFFFF" opacity="1.000000" stroke="none" 
	d="
M681.990601,310.000000 
	C666.818115,312.333649 652.096252,314.681366 637.369202,316.996460 
	C624.075684,319.086151 610.775391,321.132904 597.483582,323.233490 
	C596.890869,323.327179 596.352722,323.766876 595.563354,324.157013 
	C593.683411,315.946655 591.841125,307.900970 589.960510,299.687775 
	C550.769165,310.262054 512.346802,320.628876 474.245514,330.909058 
	C470.315552,321.471893 466.415436,312.106323 462.142761,301.846100 
	C496.257141,281.993317 530.925476,261.818115 565.800110,241.522919 
	C561.914246,235.570862 557.878479,229.629333 554.177734,223.486008 
	C553.555298,222.452698 553.803162,219.761780 554.621948,219.159409 
	C574.795044,204.317886 595.128967,189.695465 615.369446,174.945007 
	C627.509399,166.097946 639.539795,157.100662 652.492859,147.525208 
	C662.540283,163.769104 672.520691,179.904587 682.898376,196.682434 
	C646.466309,215.401489 610.746948,233.754379 575.567505,251.829865 
	C579.483887,261.713593 583.281372,271.196045 586.989929,280.713135 
	C588.237732,283.915283 589.172119,285.763702 593.683472,284.226288 
	C616.588135,276.420929 639.679138,269.162811 662.702148,261.704407 
	C675.051636,257.703735 687.454163,253.853195 699.703247,249.565155 
	C703.008606,248.408035 704.281982,249.378967 704.966553,252.187073 
	C708.999756,268.732269 713.020935,285.281097 716.823181,301.879761 
	C717.004639,302.671967 715.200928,304.695709 714.107666,304.880676 
	C704.992920,306.422821 695.825500,307.651917 686.680542,309.019104 
	C685.249756,309.233002 683.851990,309.667419 681.990601,310.000000 
z"/>
<path fill="#FFFFFF" opacity="1.000000" stroke="none" 
	d="
M235.737183,114.316055 
	C240.709656,124.301331 245.372925,134.017700 250.302231,143.597198 
	C250.896439,144.751984 253.327896,146.143631 254.236008,145.774170 
	C264.880188,141.443802 275.395782,136.797440 285.800232,132.297226 
	C273.460236,94.514961 261.124786,56.746536 248.345749,17.620033 
	C267.201691,13.082303 285.700226,8.630589 304.442383,4.120245 
	C311.029083,45.501518 317.467590,85.951744 323.924347,126.516693 
	C315.986969,128.313568 308.030762,130.114700 299.818634,131.973755 
	C310.343323,171.087982 320.716217,209.638168 330.963501,247.721390 
	C321.387390,251.716705 312.001465,255.632675 301.923157,259.837524 
	C282.106628,225.761826 262.016388,191.215454 241.647156,156.189362 
	C235.232986,160.341553 229.346313,163.949036 223.704849,167.906052 
	C221.505051,169.449020 220.496033,169.224182 218.969238,167.130463 
	C197.525558,137.724106 176.002823,108.375435 154.506805,79.007233 
	C153.744598,77.965897 153.060669,76.867287 152.339493,75.795883 
	C148.162338,69.590141 147.996017,69.327110 154.404861,65.277214 
	C168.384628,56.443062 182.550919,47.904083 196.853607,39.113838 
	C210.032211,64.646767 222.770325,89.326256 235.737183,114.316055 
z"/>
<path fill="#FFFFFF" opacity="1.000000" stroke="none" 
	d="
M414.982178,562.190247 
	C411.703979,550.347778 408.312469,538.962830 405.208527,527.500061 
	C400.382355,509.677002 395.751709,491.800964 391.114685,474.237152 
	C400.515564,470.321533 409.880432,466.420898 420.110626,462.159851 
	C439.857666,496.150970 459.929260,530.700806 480.322510,565.804260 
	C486.692780,561.698486 492.579285,558.122192 498.206299,554.175903 
	C500.622589,552.481323 501.420532,552.879272 503.113281,555.216003 
	C518.023926,575.799377 533.165161,596.215454 548.193848,616.713501 
	C556.227783,627.671143 564.216125,638.663086 572.075989,649.745300 
	C572.655212,650.561951 572.529419,652.951721 571.883362,653.407166 
	C556.790466,664.046936 541.461914,674.320862 524.428162,682.002930 
	C513.526489,660.395569 502.755005,638.984070 491.924072,617.602722 
	C485.306763,604.539429 478.667847,591.485474 471.815399,578.545532 
	C471.174072,577.334473 468.519165,575.962036 467.484894,576.376343 
	C456.945923,580.598267 446.549225,585.175293 436.175018,589.626282 
	C448.496033,627.350403 460.832764,665.122803 473.623199,704.284302 
	C454.757172,708.857788 436.202545,713.355774 417.553497,717.876648 
	C410.937897,676.303955 404.521454,635.982666 398.082306,595.518738 
	C406.066254,593.681152 414.115479,591.828552 422.118439,589.986572 
	C419.602966,580.316406 417.300385,571.464661 414.982178,562.190247 
z"/>
<path fill="#FFFFFF" opacity="1.000000" stroke="none" 
	d="
M212.759735,276.263367 
	C192.601593,264.545441 172.711105,253.095612 152.561981,241.496887 
	C157.195694,234.385101 161.577881,227.659332 166.213013,220.545364 
	C133.815079,197.016357 101.397179,173.472855 68.686440,149.716675 
	C73.289650,143.766037 77.391014,137.950241 82.024651,132.594986 
	C88.921356,124.624252 96.254265,117.032547 103.272377,109.164330 
	C105.566261,106.592575 107.142899,106.545906 109.669373,109.078590 
	C166.040131,165.588089 222.491608,222.017044 278.432739,277.966125 
	C271.986694,286.276947 265.614258,294.492798 259.096405,302.896179 
	C243.929016,294.216095 228.478195,285.373779 212.759735,276.263367 
z"/>
<path fill="#FFFFFF" opacity="1.000000" stroke="none" 
	d="
M486.750031,487.249969 
	C472.010040,472.515411 457.520050,458.030823 443.543182,444.059204 
	C450.024475,435.705719 456.400787,427.487549 462.929138,419.073395 
	C498.107941,439.369507 533.563965,459.825531 569.401428,480.501648 
	C564.815369,487.570557 560.379272,494.408325 555.797852,501.470154 
	C588.296936,525.083923 620.715454,548.639099 653.858704,572.720825 
	C641.134521,587.532166 628.761047,601.935242 616.132629,616.635071 
	C572.647278,573.148865 529.823669,530.324402 486.750031,487.249969 
z"/>
<path fill="#FFFFFF" opacity="1.000000" stroke="none" 
	d="
M446.244934,211.349167 
	C452.303345,201.047028 458.175842,191.075226 463.985870,181.067139 
	C469.453735,171.648331 474.855774,162.191315 480.390472,152.570908 
	C486.834869,156.688553 492.899353,160.333160 498.681610,164.380920 
	C500.750000,165.828873 501.620575,165.784897 503.058716,163.785080 
	C515.992249,145.800049 528.990845,127.861702 542.012939,109.940567 
	C551.427002,96.984787 560.908936,84.078346 570.345825,71.139099 
	C570.811584,70.500458 571.135681,69.758507 572.224182,67.822388 
	C586.840454,80.289658 601.224060,92.558456 615.889465,105.067665 
	C614.408386,106.805931 613.615723,107.791595 612.762329,108.721504 
	C611.974548,109.579948 611.119690,110.376747 610.297607,111.203888 
	C556.076355,165.755157 501.833069,220.284653 447.692993,274.916382 
	C444.630585,278.006592 443.014008,278.573395 439.414398,275.204559 
	C433.174774,269.364838 426.025940,264.496643 419.077942,259.080322 
	C427.963928,243.448227 436.997833,227.555939 446.244934,211.349167 
z"/>
<path fill="#FFFFFF" opacity="1.000000" stroke="none" 
	d="
M254.000076,547.997742 
	C249.887039,555.300842 245.808044,562.225769 241.548843,569.456665 
	C234.487747,564.859314 227.760376,560.479248 220.657089,555.854370 
	C197.221024,588.166626 173.730484,620.553955 149.494202,653.969482 
	C135.053848,641.628967 120.674995,629.341003 105.657921,616.507629 
	C111.357857,610.931519 116.237083,606.224731 121.042297,601.443481 
	C130.848312,591.686584 140.646606,581.921570 150.391388,572.103577 
	C191.673096,530.511597 232.968048,488.932495 274.136993,447.229034 
	C277.381958,443.941956 279.138092,443.619934 282.777710,446.998230 
	C288.925598,452.704559 295.940033,457.477295 303.070312,463.015594 
	C286.858337,490.986755 270.446228,519.303162 254.000076,547.997742 
z"/>
<path fill="#FFFFFF" opacity="1.000000" stroke="none" 
	d="
M657.002197,512.000122 
	C633.130493,499.981293 609.637085,488.008301 586.160706,476.001831 
	C582.733459,474.249054 579.508240,472.046112 575.970642,470.579803 
	C572.509644,469.145294 572.832153,467.308044 574.083984,464.495758 
	C578.501038,454.572510 582.725769,444.563629 587.376404,433.767883 
	C625.709473,446.152069 664.793213,458.778778 704.932861,471.746582 
	C697.674927,489.332886 690.495300,506.729309 682.965576,524.974121 
	C673.903870,520.390442 665.644958,516.212769 657.002197,512.000122 
z"/>
<path fill="#FFFFFF" opacity="1.000000" stroke="none" 
	d="
M80.334183,270.727722 
	C59.395222,263.884216 38.795612,257.274994 17.056150,250.300034 
	C24.318136,232.702484 31.499245,215.300934 38.909290,197.344620 
	C41.227772,198.378281 42.812874,199.009445 44.331348,199.773117 
	C75.100151,215.247116 105.868935,230.721222 136.612976,246.244339 
	C139.914871,247.911514 142.960098,250.108902 146.315948,251.640640 
	C149.108383,252.915222 149.294449,254.177505 148.095474,256.918915 
	C144.053360,266.161041 140.230072,275.506927 136.638504,284.933289 
	C135.515350,287.881073 134.661926,288.363281 131.508087,287.287720 
	C114.969070,281.647430 98.298210,276.393707 81.669060,271.018341 
	C81.363106,270.919434 81.006508,270.977264 80.334183,270.727722 
z"/>
<path fill="#FFFFFF" opacity="1.000000" stroke="none" 
	d="
M246.000000,587.001831 
	C247.884674,583.042542 249.938477,579.554382 251.520462,575.864014 
	C252.827545,572.814941 254.322998,572.654175 257.186859,573.946106 
	C267.230225,578.477173 277.405365,582.716187 288.316559,587.403748 
	C275.937073,625.827026 263.339905,664.925903 250.420013,705.026489 
	C232.584259,697.653992 215.178543,690.459290 196.921234,682.912537 
	C213.565872,650.492249 229.765427,618.938843 246.000000,587.001831 
z"/>
<path fill="#FFFFFF" opacity="1.000000" stroke="none" 
	d="
M444.981323,99.909897 
	C453.778748,72.288414 462.557495,45.077564 471.627533,16.963829 
	C489.592743,24.414677 506.977509,31.624794 524.871155,39.045975 
	C521.144287,46.611839 517.945312,53.249226 514.622192,59.823853 
	C506.431915,76.028008 498.211700,92.217186 489.951447,108.385796 
	C483.590424,120.836929 477.061798,133.203400 470.806396,145.706909 
	C469.207947,148.901947 467.749878,149.462585 464.394165,147.911621 
	C454.541260,143.357712 444.483490,139.247147 433.628723,134.586304 
	C437.252319,123.631126 441.107483,111.975822 444.981323,99.909897 
z"/>
</svg>